<?xml version="1.0" encoding="UTF-8" standalone="no"?>
<!-- Created with Inkscape (http://www.inkscape.org/) -->

<svg
   xmlns:dc="http://purl.org/dc/elements/1.1/"
   xmlns:cc="http://creativecommons.org/ns#"
   xmlns:rdf="http://www.w3.org/1999/02/22-rdf-syntax-ns#"
   xmlns:svg="http://www.w3.org/2000/svg"
   xmlns="http://www.w3.org/2000/svg"
   xmlns:sodipodi="http://sodipodi.sourceforge.net/DTD/sodipodi-0.dtd"
   xmlns:inkscape="http://www.inkscape.org/namespaces/inkscape"
   width="12.401574"
   height="12.401574"
   id="svg3782"
   version="1.1"
   inkscape:version="0.48.4 r9939"
   sodipodi:docname="ic_email.svg">
  <defs
     id="defs3784" />
  <sodipodi:namedview
     id="base"
     pagecolor="#ffffff"
     bordercolor="#666666"
     borderopacity="1.0"
     inkscape:pageopacity="0.0"
     inkscape:pageshadow="2"
     inkscape:zoom="15.839192"
     inkscape:cx="6.85764"
     inkscape:cy="1.7561394"
     inkscape:document-units="px"
     inkscape:current-layer="layer1"
     showgrid="false"
     units="mm"
     inkscape:window-width="896"
     inkscape:window-height="631"
     inkscape:window-x="1535"
     inkscape:window-y="341"
     inkscape:window-maximized="0" />
  <metadata
     id="metadata3787">
    <rdf:RDF>
      <cc:Work
         rdf:about="">
        <dc:format>image/svg+xml</dc:format>
        <dc:type
           rdf:resource="http://purl.org/dc/dcmitype/StillImage" />
        <dc:title />
      </cc:Work>
    </rdf:RDF>
  </metadata>
  <g
     inkscape:label="Livello 1"
     inkscape:groupmode="layer"
     id="layer1"
     transform="translate(0,-1039.9593)">
    <rect
       style="fill:#ffffff;fill-opacity:0"
       id="rect3790"
       width="12.401509"
       height="12.401575"
       x="0"
       y="1039.9594" />
    <g
       id="Group"
       transform="matrix(0.88571429,0,0,0.8,-298.48493,1039.7601)"
       style="fill:#209bd4;fill-opacity:1;stroke:none">
      <path
         d="m 345.73196,8.4845362 4.94979,4.2426818 C 350.50168,12.895464 350.2595,13 349.99315,13 l -11.98631,0 c -0.26765,0 -0.5106,-0.102945 -0.69077,-0.270915 L 342.26804,8.4845362 344,10 z M 344,9 337.31824,3.2727818 C 337.49832,3.1045365 337.7405,3 338.00684,3 l 11.98631,0 c 0.26766,0 0.51061,0.1029448 0.69078,0.2709155 z m 7,3.185608 L 346.16736,8.0788577 351,3.875422 l 0,8.310186 0,0 z m -14,0 0,-8.3074561 4.83264,4.2007055 L 337,12.185608 l 0,0 z m 0,0"
         id="Shape"
         inkscape:connector-curvature="0"
         style="fill:#209bd4;fill-opacity:1" />
    </g>
  </g>
</svg>
