<?xml version="1.0" encoding="UTF-8" standalone="no"?>
<!-- Created with Inkscape (http://www.inkscape.org/) -->

<svg
   xmlns:dc="http://purl.org/dc/elements/1.1/"
   xmlns:cc="http://creativecommons.org/ns#"
   xmlns:rdf="http://www.w3.org/1999/02/22-rdf-syntax-ns#"
   xmlns:svg="http://www.w3.org/2000/svg"
   xmlns="http://www.w3.org/2000/svg"
   xmlns:sodipodi="http://sodipodi.sourceforge.net/DTD/sodipodi-0.dtd"
   xmlns:inkscape="http://www.inkscape.org/namespaces/inkscape"
   width="43"
   height="43"
   id="svg3782"
   version="1.1"
   inkscape:version="0.48.4 r9939"
   sodipodi:docname="ic_linkedin.svg"
   inkscape:export-filename="/home/leinardi/Scrivania/europecv/ic_linkedin.png"
   inkscape:export-xdpi="90"
   inkscape:export-ydpi="90">
  <defs
     id="defs3784" />
  <sodipodi:namedview
     id="base"
     pagecolor="#ffffff"
     bordercolor="#666666"
     borderopacity="1.0"
     inkscape:pageopacity="0.0"
     inkscape:pageshadow="2"
     inkscape:zoom="7.9195959"
     inkscape:cx="3.99079"
     inkscape:cy="14.824038"
     inkscape:document-units="px"
     inkscape:current-layer="layer1"
     showgrid="false"
     units="px"
     inkscape:window-width="896"
     inkscape:window-height="631"
     inkscape:window-x="545"
     inkscape:window-y="298"
     inkscape:window-maximized="0" />
  <metadata
     id="metadata3787">
    <rdf:RDF>
      <cc:Work
         rdf:about="">
        <dc:format>image/svg+xml</dc:format>
        <dc:type
           rdf:resource="http://purl.org/dc/dcmitype/StillImage" />
        <dc:title></dc:title>
      </cc:Work>
    </rdf:RDF>
  </metadata>
  <g
     inkscape:label="Livello 1"
     inkscape:groupmode="layer"
     id="layer1"
     transform="translate(0,-1009.3609)">
    <rect
       style="fill:#ffffff;fill-opacity:0"
       id="rect3790"
       width="12.401509"
       height="12.401575"
       x="0"
       y="1039.9594" />
    <path
       inkscape:connector-curvature="0"
       d="m 9.036954,1010.3609 c -4.4212078,0 -8.0369541,3.6157 -8.0369541,8.037 l 0,24.9372 c 0,4.4101 3.6157463,8.0258 8.0369541,8.0258 l 24.938976,0 c 4.408321,0 8.02407,-3.6157 8.02407,-8.0258 l 0,-24.9372 c 0,-4.4213 -3.615749,-8.037 -8.02407,-8.037 l -24.938976,0 z m 2.020932,6.7604 c 2.111347,0 3.422065,1.4043 3.454338,3.2154 0,1.7881 -1.342991,3.2267 -3.504338,3.2267 l -0.03239,0 c -2.0822538,0 -3.4220239,-1.4386 -3.4220239,-3.2267 0,-1.8111 1.3881998,-3.2154 3.5043379,-3.2154 z m 18.256291,8.5583 c 4.082241,0 7.133065,2.6439 7.133065,8.3757 l 0,10.6857 -6.198426,0 0,-9.9753 c 0,-2.5005 -0.889432,-4.2148 -3.133134,-4.2148 -1.711012,0 -2.726314,1.1495 -3.176693,2.276 -0.161422,0.4048 -0.211447,0.9557 -0.211447,1.5174 l 0,10.3967 -6.18226,0 c 0,0 0.07909,-16.8838 0,-18.6448 l 6.18226,0 0,2.6486 c 0.821623,-1.2607 2.309863,-3.0652 5.586639,-3.0652 z m -21.3877742,0.4151 6.1806962,0 0,18.6447 -6.1806962,0 0,-18.6447 z"
       style="fill:#209bd4;fill-opacity:1;fill-rule:nonzero;stroke:none"
       id="path14" />
  </g>
</svg>
