<?xml version="1.0" encoding="UTF-8" standalone="no"?>
<svg
   xmlns:dc="http://purl.org/dc/elements/1.1/"
   xmlns:cc="http://creativecommons.org/ns#"
   xmlns:rdf="http://www.w3.org/1999/02/22-rdf-syntax-ns#"
   xmlns:svg="http://www.w3.org/2000/svg"
   xmlns="http://www.w3.org/2000/svg"
   xmlns:sodipodi="http://sodipodi.sourceforge.net/DTD/sodipodi-0.dtd"
   xmlns:inkscape="http://www.inkscape.org/namespaces/inkscape"
   version="1.1"
   x="0px"
   y="0px"
   viewBox="0 0 93.1 90.599998"
   xml:space="preserve"
   id="svg8"
   sodipodi:docname="so-icon.svg"
   width="93.099998"
   height="90.599998"
   inkscape:version="0.92.2 (5c3e80d, 2017-08-06)"><metadata
     id="metadata14"><rdf:RDF><cc:Work
         rdf:about=""><dc:format>image/svg+xml</dc:format><dc:type
           rdf:resource="http://purl.org/dc/dcmitype/StillImage" /><dc:title></dc:title></cc:Work></rdf:RDF></metadata><defs
     id="defs12" /><sodipodi:namedview
     pagecolor="#ffffff"
     bordercolor="#666666"
     borderopacity="1"
     objecttolerance="10"
     gridtolerance="10"
     guidetolerance="10"
     inkscape:pageopacity="0"
     inkscape:pageshadow="2"
     inkscape:window-width="720"
     inkscape:window-height="480"
     id="namedview10"
     showgrid="false"
     height="1"
     width="1"
     fit-margin-left="10"
     fit-margin-right="10"
     fit-margin-top="2"
     fit-margin-bottom="2"
     inkscape:zoom="1.9666667"
     inkscape:cx="32.859764"
     inkscape:cy="25.728536"
     inkscape:window-x="0"
     inkscape:window-y="31"
     inkscape:window-maximized="0"
     inkscape:current-layer="svg8" /><style
     type="text/css"
     id="style2">
	.st0{fill:#209bd4;}
	.st1{fill:#209bd4;}
</style><polygon
     class="st0"
     points="22.6,101.5 22.6,70.6 30.3,70.6 30.3,93.8 84.4,93.8 84.4,70.6 92.1,70.6 92.1,101.5 "
     id="polygon4"
     style="fill:#209bd4"
     transform="translate(-12.6,-12.9)" /><path
     class="st1"
     d="M 26.2,55.5 64,63.4 65.6,55.8 27.8,47.9 Z m 5,-18 35,16.3 3.2,-7 -35,-16.4 z M 40.9,20.3 70.6,45 75.5,39.1 45.8,14.4 Z M 60.1,2 l -6.2,4.6 23,31 6.2,-4.6 z M 25.4,73.1 H 64 V 65.4 H 25.4 Z"
     id="path6"
     inkscape:connector-curvature="0"
     style="fill:#209bd4" /></svg>